<svg width="2936" height="1239" xmlns="http://www.w3.org/2000/svg" xmlns:xlink="http://www.w3.org/1999/xlink" xml:space="preserve" overflow="hidden"><defs><clipPath id="clip0"><rect x="3308" y="4469" width="2936" height="1239"/></clipPath></defs><g clip-path="url(#clip0)" transform="translate(-3308 -4469)"><rect x="3309" y="4470" width="2933" height="1236" fill="#FFFFFF"/><g><path d="M5403.68 4696.5 5403.68 5655.5M6103.5 4696.5 6103.5 5655.5" stroke="#D9D9D9" stroke-width="3.4375" stroke-linejoin="round" stroke-miterlimit="10" fill="none"/></g><g><path d="M4803.16 4713.15 4703 4713.15 4703 4736.16 4803.16 4736.16ZM4803.16 4770.16 4703 4770.16 4703 4792.16 4803.16 4792.16ZM4903.16 4826.16 4703 4826.16 4703 4849.16 4903.16 4849.16ZM5203.17 4882.16 4703 4882.16 4703 4905.16 5203.17 4905.16ZM5203.17 4939.16 4703 4939.16 4703 4961.16 5203.17 4961.16ZM5203.17 4995.16 4703 4995.16 4703 5018.16 5203.17 5018.16ZM5303.17 5052.17 4703 5052.17 4703 5074.17 5303.17 5074.17ZM5303.17 5108.17 4703 5108.17 4703 5131.17 5303.17 5131.17ZM5303.17 5165.17 4703 5165.17 4703 5187.17 5303.17 5187.17ZM5903.19 5221.17 4703 5221.17 4703 5244.17 5903.19 5244.17ZM5903.19 5278.17 4703 5278.17 4703 5300.17 5903.19 5300.17ZM5903.19 5334.17 4703 5334.17 4703 5357.18 5903.19 5357.18ZM5903.19 5390.18 4703 5390.18 4703 5413.18 5903.19 5413.18ZM5903.19 5447.18 4703 5447.18 4703 5469.18 5903.19 5469.18ZM5903.19 5503.18 5403.18 5503.18 5403.18 5526.18 5903.19 5526.18ZM5903.19 5560.18 5403.18 5560.18 5403.18 5582.18 5903.19 5582.18ZM5903.19 5616.18 5403.18 5616.18 5403.18 5639.19 5903.19 5639.19Z" fill="#C0504D"/></g><g><path d="M4703.5 4696.5 4703.5 5655.5" stroke="#D9D9D9" stroke-width="3.4375" stroke-linejoin="round" stroke-miterlimit="10" fill="none" fill-rule="evenodd"/></g><g><text fill="#595959" font-family="Calibri,Calibri_MSFontService,sans-serif" font-weight="400" font-size="41" transform="matrix(1 0 0 1 4614.29 4654)">7/13/2026</text></g><g><text fill="#595959" font-family="Calibri,Calibri_MSFontService,sans-serif" font-weight="400" font-size="41" transform="matrix(1 0 0 1 5314.11 4654)">7/20/2026</text></g><g><text fill="#595959" font-family="Calibri,Calibri_MSFontService,sans-serif" font-weight="400" font-size="41" transform="matrix(1 0 0 1 6013.93 4654)">7/27/2026</text></g><g><text fill="#595959" font-family="Calibri,Calibri_MSFontService,sans-serif" font-weight="400" font-size="41" transform="matrix(1 0 0 1 4052.37 4736)">Draw the general Use-Case Diagram</text></g><g><text fill="#595959" font-family="Calibri,Calibri_MSFontService,sans-serif" font-weight="400" font-size="41" transform="matrix(1 0 0 1 4166.82 4793)">Export the Use-Case Diagram</text></g><g><text fill="#595959" font-family="Calibri,Calibri_MSFontService,sans-serif" font-weight="400" font-size="41" transform="matrix(1 0 0 1 3544.38 4849)">Complete the Room Reservation usecase in Borrowing &amp; Reserving</text></g><g><text fill="#595959" font-family="Calibri,Calibri_MSFontService,sans-serif" font-weight="400" font-size="41" transform="matrix(1 0 0 1 3432.59 4905)">Complete the Books page (Book Management, Book Pickup, Book Return,…</text></g><g><text fill="#595959" font-family="Calibri,Calibri_MSFontService,sans-serif" font-weight="400" font-size="41" transform="matrix(1 0 0 1 3936.94 4962)">Complete the AI Recommendations feature</text></g><g><g><text fill="#595959" font-family="Calibri,Calibri_MSFontService,sans-serif" font-weight="400" font-size="41" transform="matrix(1 0 0 1 4114.18 5018)">Complete Study Group </text></g></g><g><g><text fill="#595959" font-family="Calibri,Calibri_MSFontService,sans-serif" font-weight="400" font-size="41" transform="matrix(1 0 0 1 4505.23 5018)">–</text></g></g><g><g><text fill="#595959" font-family="Calibri,Calibri_MSFontService,sans-serif" font-weight="400" font-size="41" transform="matrix(1 0 0 1 4535.09 5018)">phase 1</text></g></g><g><text fill="#595959" font-family="Calibri,Calibri_MSFontService,sans-serif" font-weight="400" font-size="41" transform="matrix(1 0 0 1 4218.91 5075)">Overview and Merge Code</text></g><g><text fill="#595959" font-family="Calibri,Calibri_MSFontService,sans-serif" font-weight="400" font-size="41" transform="matrix(1 0 0 1 3890.03 5131)">Write the Detailed Vision Document (5 points)</text></g><g><text fill="#595959" font-family="Calibri,Calibri_MSFontService,sans-serif" font-weight="400" font-size="41" transform="matrix(1 0 0 1 3977.73 5188)">Write the Revised Project Plan (5 points)</text></g><g><text fill="#595959" font-family="Calibri,Calibri_MSFontService,sans-serif" font-weight="400" font-size="41" transform="matrix(1 0 0 1 3601.74 5244)">Support Minh and Gia on the Use-Case Specification (45 points)</text></g><g><text fill="#595959" font-family="Calibri,Calibri_MSFontService,sans-serif" font-weight="400" font-size="41" transform="matrix(1 0 0 1 3448.54 5301)">Record the narrated video demo for the Authentication functional group</text></g><g><text fill="#595959" font-family="Calibri,Calibri_MSFontService,sans-serif" font-weight="400" font-size="41" transform="matrix(1 0 0 1 3768.89 5357)">Write the AI Usage Report + Weekly Report (5 points)</text></g><g><g><text fill="#595959" font-family="Calibri,Calibri_MSFontService,sans-serif" font-weight="400" font-size="41" transform="matrix(1 0 0 1 3338.39 5413)">Co</text></g></g><g><g><text fill="#595959" font-family="Calibri,Calibri_MSFontService,sans-serif" font-weight="400" font-size="41" transform="matrix(1 0 0 1 3382.13 5413)">-</text></g></g><g><g><text fill="#595959" font-family="Calibri,Calibri_MSFontService,sans-serif" font-weight="400" font-size="41" transform="matrix(1 0 0 1 3394.76 5413)">author the Use</text></g></g><g><g><text fill="#595959" font-family="Calibri,Calibri_MSFontService,sans-serif" font-weight="400" font-size="41" transform="matrix(1 0 0 1 3645.65 5413)">-</text></g></g><g><g><text fill="#595959" font-family="Calibri,Calibri_MSFontService,sans-serif" font-weight="400" font-size="41" transform="matrix(1 0 0 1 3658.28 5413)">Case Specification (45 points) with Minh, supported by Nhất</text></g></g><g><text fill="#595959" font-family="Calibri,Calibri_MSFontService,sans-serif" font-weight="400" font-size="41" transform="matrix(1 0 0 1 3844.11 5470)">Co-author the Use-Case Specification (45 points)</text></g><g><text fill="#595959" font-family="Calibri,Calibri_MSFontService,sans-serif" font-weight="400" font-size="41" transform="matrix(1 0 0 1 3450.58 5526)">Complete the Book Return Confirmation and Loan Recognition usecases</text></g><g><text fill="#595959" font-family="Calibri,Calibri_MSFontService,sans-serif" font-weight="400" font-size="41" transform="matrix(1 0 0 1 3354.15 5583)">Complete the Add Books / Remove Books usecases in Librarian Administration</text></g><g><g><text fill="#595959" font-family="Calibri,Calibri_MSFontService,sans-serif" font-weight="400" font-size="41" transform="matrix(1 0 0 1 4104.83 5639)">Complete Study Group </text></g></g><g><g><text fill="#595959" font-family="Calibri,Calibri_MSFontService,sans-serif" font-weight="400" font-size="41" transform="matrix(1 0 0 1 4495.88 5639)">–</text></g></g><g><g><text fill="#595959" font-family="Calibri,Calibri_MSFontService,sans-serif" font-weight="400" font-size="41" transform="matrix(1 0 0 1 4525.74 5639)">phase 2 </text></g></g><g><text fill="#595959" font-family="Calibri,Calibri_MSFontService,sans-serif" font-weight="400" font-size="64" transform="matrix(1 0 0 1 4396.63 4566)">Sprint 3 (13 Jul </text></g><g><text fill="#595959" font-family="Calibri,Calibri_MSFontService,sans-serif" font-weight="400" font-size="64" transform="matrix(1 0 0 1 4795.5 4566)">–</text></g><g><text fill="#595959" font-family="Calibri,Calibri_MSFontService,sans-serif" font-weight="400" font-size="64" transform="matrix(1 0 0 1 4841.97 4566)">26 Jul 2026)</text></g><rect x="3309.5" y="4470.5" width="2933" height="1236" stroke="#D9D9D9" stroke-width="3.4375" stroke-linejoin="round" stroke-miterlimit="10" fill="none"/></g></svg>